<?xml version="1.0" encoding="UTF-8"?>
<svg width="20px" height="20px" viewBox="0 0 20 20" version="1.1" xmlns="http://www.w3.org/2000/svg" xmlns:xlink="http://www.w3.org/1999/xlink">
    <!-- Generator: Sketch 44.1 (41455) - http://www.bohemiancoding.com/sketch -->
    <title>Icons/Informational/warning-yuzu</title>
    <desc>Created with Sketch.</desc>
    <defs>
        <path d="M10,2 C5.584,2 2,5.58 2,10 C2,14.42 5.584,18 10,18 C14.416,18 18,14.42 18,10 C18,5.58 14.416,2 10,2 L10,2 Z M10.8,14 L9.2,14 L9.2,12.4 L10.8,12.4 L10.8,14 L10.8,14 Z M10.8,10.8 L9.2,10.8 L9.2,6 L10.8,6 L10.8,10.8 L10.8,10.8 Z" id="path-1"></path>
    </defs>
    <g id="Symbols" stroke="none" stroke-width="1" fill="none" fill-rule="evenodd">
        <g id="Icons/Informational/warning-yuzu">
            <path d="M10,2.5 C5.86,2.5 2.5,5.85625 2.5,10 C2.5,14.14375 5.86,17.5 10,17.5 C14.14,17.5 17.5,14.14375 17.5,10 C17.5,5.85625 14.14,2.5 10,2.5 L10,2.5 Z" id="Path-Copy" fill="#FFFFFF"></path>
            <mask id="mask-2" fill="white">
                <use xlink:href="#path-1"></use>
            </mask>
            <use fill="#000000" xlink:href="#path-1"></use>
        </g>
    </g>
</svg>