<?xml version="1.0" encoding="UTF-8"?>
<svg width="20px" height="20px" viewBox="0 0 20 20" version="1.1" xmlns="http://www.w3.org/2000/svg" xmlns:xlink="http://www.w3.org/1999/xlink">
    <!-- Generator: Sketch 44.1 (41455) - http://www.bohemiancoding.com/sketch -->
    <title>Icons/Informational/information-ocean</title>
    <desc>Created with Sketch.</desc>
    <defs>
        <path d="M10,2 C5.58,2 2,5.58 2,10 C2,14.42 5.58,18 10,18 C14.42,18 18,14.42 18,10 C18,5.58 14.42,2 10,2 L10,2 Z M9.2,7.6 L10.8,7.6 L10.8,6 L9.2,6 L9.2,7.6 Z M9.2,14 L10.8,14 L10.8,9.2 L9.2,9.2 L9.2,14 Z" id="path-1"></path>
    </defs>
    <g id="Symbols" stroke="none" stroke-width="1" fill="none" fill-rule="evenodd">
        <g id="Icons/Informational/information-ocean">
            <path d="M10,2.5 C5.85625,2.5 2.5,5.85625 2.5,10 C2.5,14.14375 5.85625,17.5 10,17.5 C14.14375,17.5 17.5,14.14375 17.5,10 C17.5,5.85625 14.14375,2.5 10,2.5 L10,2.5 Z" id="Path-Copy" fill="#FFFFFF"></path>
            <mask id="mask-2" fill="white">
                <use xlink:href="#path-1"></use>
            </mask>
            <use fill="#000000" xlink:href="#path-1"></use>
        </g>
    </g>
</svg>