<?xml version="1.0" encoding="UTF-8"?>
<svg width="24px" height="24px" viewBox="0 0 24 24" version="1.1" xmlns="http://www.w3.org/2000/svg" xmlns:xlink="http://www.w3.org/1999/xlink">
    <!-- Generator: Sketch 44.1 (41455) - http://www.bohemiancoding.com/sketch -->
    <title>actions-add</title>
    <desc>Created with Sketch.</desc>
    <defs></defs>
    <g id="Symbols" stroke="none" stroke-width="1" fill="none" fill-rule="evenodd">
        <g id="actions-add">
            <g id="icon_add">
                <rect id="Rectangle-2" x="0" y="0" width="24" height="24"></rect>
                <path d="M12,2 C6.475,2 2,6.475 2,12 C2,17.525 6.475,22 12,22 C17.525,22 22,17.525 22,12 C22,6.475 17.525,2 12,2 L12,2 Z M17,13 L13,13 L13,17 L11,17 L11,13 L7,13 L7,11 L11,11 L11,7 L13,7 L13,11 L17,11 L17,13 L17,13 Z" fill="#000000"></path>
            </g>
        </g>
    </g>
</svg>
