<?xml version="1.0" encoding="UTF-8"?>
<svg width="20px" height="20px" viewBox="0 0 20 20" version="1.1" xmlns="http://www.w3.org/2000/svg" xmlns:xlink="http://www.w3.org/1999/xlink">
    <!-- Generator: Sketch 45 (43475) - http://www.bohemiancoding.com/sketch -->
    <title>Icons/Surveys/survey-draft</title>
    <desc>Created with Sketch.</desc>
    <defs>
        <path d="M15.3608198,2.63636364 C16.2596834,2.63636364 16.9951172,3.37272727 16.9951172,4.27272727 L16.9951172,17.3636364 C16.9951172,18.2636364 16.2596834,19 15.3608198,19 L4.62941458,19 C3.73055102,19 2.99511719,18.2636364 2.99511719,17.3636364 L2.99511719,4.27272727 C2.99511719,3.37272727 3.73055102,2.63636364 4.62941458,2.63636364 L7.68679559,2.63636364 C8.02999804,1.68727273 8.92886161,1 9.99115491,1 C11.0534482,1 11.9523118,1.68727273 12.2955142,2.63636364 L15.3608198,2.63636364 Z M11.140066,8.80054545 L6.33278019,13.2432727 L6.33278019,14.9090909 L8.13541022,14.9090909 L12.942696,10.4663636 L11.140066,8.80054545 Z M13.2417724,7.48736364 C13.0538282,7.31390909 12.7482146,7.31390909 12.5610876,7.48736364 L11.6205494,8.35627273 L13.4239966,10.0220909 L14.3637176,9.15318182 C14.5508446,8.97972727 14.5508446,8.69827273 14.3637176,8.52481818 L13.2417724,7.48736364 Z M10.8083036,3.45454545 C10.8083036,3.90454545 10.4405867,4.27272727 9.99115491,4.27272727 C9.54172313,4.27272727 9.17400621,3.90454545 9.17400621,3.45454545 C9.17400621,3.00454545 9.54172313,2.63636364 9.99115491,2.63636364 C10.4405867,2.63636364 10.8083036,3.00454545 10.8083036,3.45454545 Z" id="path-1"></path>
    </defs>
    <g id="Symbols" stroke="none" stroke-width="1" fill="none" fill-rule="evenodd">
        <g id="Icons/Surveys/survey-draft">
            <mask id="mask-2" fill="white">
                <use xlink:href="#path-1"></use>
            </mask>
            <use fill="#000000" xlink:href="#path-1"></use>
        </g>
    </g>
</svg>