<?xml version="1.0" encoding="UTF-8"?>
<svg width="24px" height="24px" viewBox="0 0 24 24" version="1.1" xmlns="http://www.w3.org/2000/svg" xmlns:xlink="http://www.w3.org/1999/xlink">
    <!-- Generator: Sketch 44.1 (41455) - http://www.bohemiancoding.com/sketch -->
    <title>Icons/Functions/icon_settings</title>
    <desc>Created with Sketch.</desc>
    <defs></defs>
    <g id="Symbols" stroke="none" stroke-width="1" fill="none" fill-rule="evenodd">
        <g id="Icons/Functions/icon_settings">
            <g id="icon_settings" transform="translate(0.000000, 0.261719)">
                <rect id="Rectangle-2" x="0" y="0" width="24" height="24"></rect>
                <path d="M18.8723817,12.904231 C18.9093817,12.608231 18.9371317,12.312231 18.9371317,11.997731 C18.9371317,11.683231 18.9093817,11.387231 18.8723817,11.091231 L20.8241317,9.56498102 C20.9998817,9.42623102 21.0470567,9.17648102 20.9351317,8.97298102 L19.0851317,5.77248102 C18.9741317,5.56898102 18.7243817,5.49498102 18.5208817,5.56898102 L16.2176317,6.49398102 C15.7366317,6.12398102 15.2186317,5.81873102 14.6543817,5.58748102 L14.3038067,3.13623102 C14.2751317,2.91423102 14.0808817,2.74773102 13.8496317,2.74773102 L10.1496317,2.74773102 C9.91838173,2.74773102 9.72413173,2.91423102 9.69638173,3.13623102 L9.34488173,5.58748102 C8.78063173,5.81873102 8.26263173,6.13323102 7.78163173,6.49398102 L5.47930673,5.56898102 C5.26563173,5.48573102 5.02513173,5.56898102 4.91413173,5.77248102 L3.06413173,8.97298102 C2.94388173,9.17648102 2.99938173,9.42623102 3.17513173,9.56498102 L5.12780673,11.091231 C5.09080673,11.387231 5.06213173,11.692481 5.06213173,11.997731 C5.06213173,12.302981 5.09080673,12.608231 5.12780673,12.904231 L3.17513173,14.430481 C2.99938173,14.569231 2.95313173,14.818981 3.06413173,15.022481 L4.91413173,18.222981 C5.02513173,18.426481 5.27488173,18.500481 5.47930673,18.426481 L7.78163173,17.501481 C8.26263173,17.871481 8.78063173,18.176731 9.34488173,18.407981 L9.69638173,20.859231 C9.72413173,21.081231 9.91838173,21.247731 10.1496317,21.247731 L13.8496317,21.247731 C14.0808817,21.247731 14.2751317,21.081231 14.3038067,20.859231 L14.6543817,18.407981 C15.2186317,18.176731 15.7366317,17.862231 16.2176317,17.501481 L18.5208817,18.426481 C18.7345567,18.509731 18.9741317,18.426481 19.0851317,18.222981 L20.9351317,15.022481 C21.0470567,14.818981 20.9998817,14.569231 20.8241317,14.430481 L18.8723817,12.904231 Z M11.9996317,15.235231 C10.2153067,15.235231 8.76213173,13.782981 8.76213173,11.997731 C8.76213173,10.212481 10.2153067,8.76023102 11.9996317,8.76023102 C13.7848817,8.76023102 15.2371317,10.212481 15.2371317,11.997731 C15.2371317,13.782981 13.7848817,15.235231 11.9996317,15.235231 L11.9996317,15.235231 Z" fill="#3E4543"></path>
            </g>
        </g>
    </g>
</svg>