<?xml version="1.0" encoding="UTF-8"?>
<svg width="18px" height="21px" viewBox="0 0 18 21" version="1.1" xmlns="http://www.w3.org/2000/svg" xmlns:xlink="http://www.w3.org/1999/xlink">
    <!-- Generator: Sketch 44.1 (41455) - http://www.bohemiancoding.com/sketch -->
    <title>functions-duplicate</title>
    <desc>Created with Sketch.</desc>
    <defs></defs>
    <g id="Style" stroke="none" stroke-width="1" fill="none" fill-rule="evenodd">
        <g id="Style/Icons" transform="translate(-599.000000, -919.000000)">
            <g id="Functions" transform="translate(61.000000, 882.000000)">
                <g id="Icons/Functions/icon_duplicate" transform="translate(535.000000, 35.750000)">
                    <g id="icon_duplicate">
                        <rect id="Rectangle-2" x="0" y="0" width="24" height="24"></rect>
                        <path d="M16.0909091,1.99990909 L5.18181818,1.99990909 C4.17727273,1.99990909 3.36363636,2.81354545 3.36363636,3.81809091 L3.36363636,16.5453636 L5.18181818,16.5453636 L5.18181818,3.81809091 L16.0909091,3.81809091 L16.0909091,1.99990909 Z M18.8181818,5.63627273 L8.81818182,5.63627273 C7.81363636,5.63627273 7,6.44990909 7,7.45445455 L7,20.1817273 C7,21.1862727 7.81363636,21.9999091 8.81818182,21.9999091 L18.8181818,21.9999091 C19.8227273,21.9999091 20.6363636,21.1862727 20.6363636,20.1817273 L20.6363636,7.45445455 C20.6363636,6.44990909 19.8227273,5.63627273 18.8181818,5.63627273 L18.8181818,5.63627273 Z" fill="#000000"></path>
                    </g>
                </g>
            </g>
        </g>
    </g>
</svg>
