<?xml version="1.0" encoding="UTF-8"?>
<svg width="20px" height="20px" viewBox="0 0 20 20" version="1.1" xmlns="http://www.w3.org/2000/svg" xmlns:xlink="http://www.w3.org/1999/xlink">
    <!-- Generator: Sketch 44.1 (41455) - http://www.bohemiancoding.com/sketch -->
    <title>Icons/Informational/success-seedling</title>
    <desc>Created with Sketch.</desc>
    <defs>
        <path d="M10,2 C5.584,2 2,5.584 2,10 C2,14.416 5.584,18 10,18 C14.416,18 18,14.416 18,10 C18,5.584 14.416,2 10,2 L10,2 Z M8.4,14 L4.4,10 L5.528,8.872 L8.4,11.736 L14.472,5.664 L15.6,6.8 L8.4,14 L8.4,14 Z" id="path-1"></path>
    </defs>
    <g id="Symbols" stroke="none" stroke-width="1" fill="none" fill-rule="evenodd">
        <g id="Icons/Informational/success-seedling">
            <path d="M10,2.5 C5.86,2.5 2.5,5.86 2.5,10 C2.5,14.14 5.86,17.5 10,17.5 C14.14,17.5 17.5,14.14 17.5,10 C17.5,5.86 14.14,2.5 10,2.5 L10,2.5 Z" id="Path" fill="#FFFFFF"></path>
            <mask id="mask-2" fill="white">
                <use xlink:href="#path-1"></use>
            </mask>
            <use fill="#000000" xlink:href="#path-1"></use>
        </g>
    </g>
</svg>