<?xml version="1.0" encoding="UTF-8"?>
<svg width="18px" height="23px" viewBox="0 0 18 23" version="1.1" xmlns="http://www.w3.org/2000/svg" xmlns:xlink="http://www.w3.org/1999/xlink">
    <!-- Generator: Sketch 44.1 (41455) - http://www.bohemiancoding.com/sketch -->
    <title>Icons/Surveys/icon_survey_closed</title>
    <desc>Created with Sketch.</desc>
    <defs></defs>
    <g id="Sub-Atomic" stroke="none" stroke-width="1" fill="none" fill-rule="evenodd">
        <g id="Atom---Icons" transform="translate(-343.000000, -1428.000000)">
            <g id="Surveys" transform="translate(61.000000, 1388.000000)">
                <g id="Icons/Surveys/icon_survey_closed" transform="translate(279.000000, 39.261719)">
                    <g id="icon_survey_closed">
                        <rect id="Rectangle-2" x="0" y="0" width="24" height="24"></rect>
                        <path d="M14.82,3 C14.4,1.84 13.299,1 12,1 C10.7,1 9.599,1.84 9.179,3 L5,3 C3.9,3 3,3.9 3,5 L3,21 C3,22.1 3.9,23 5,23 L19,23 C20.099,23 21,22.1 21,21 L21,5 C21,3.9 20.099,3 19,3 L14.82,3 Z M12,3 C12.549,3 13,3.45 13,4 C13,4.55 12.549,5 12,5 C11.45,5 11,4.55 11,4 C11,3.45 11.45,3 12,3 L12,3 Z M6,14 L7.41,12.59 L10,15.17 L16.59,8.58 L18,10 L10,18 L6,14 Z" fill="#000000"></path>
                    </g>
                </g>
            </g>
        </g>
    </g>
</svg>
