<?xml version="1.0" encoding="UTF-8"?>
<svg width="18px" height="23px" viewBox="0 0 18 23" version="1.1" xmlns="http://www.w3.org/2000/svg" xmlns:xlink="http://www.w3.org/1999/xlink">
    <!-- Generator: Sketch 44.1 (41455) - http://www.bohemiancoding.com/sketch -->
    <title>Icons/Surveys/icon_survey_draft</title>
    <desc>Created with Sketch.</desc>
    <defs></defs>
    <g id="Sub-Atomic" stroke="none" stroke-width="1" fill="none" fill-rule="evenodd">
        <g id="Atom---Icons" transform="translate(-215.000000, -1428.000000)">
            <g id="Surveys" transform="translate(61.000000, 1388.000000)">
                <g id="Icons/Surveys/icon_survey_draft" transform="translate(151.000000, 39.261719)">
                    <g id="icon_survey_draft">
                        <rect id="Rectangle-2" x="0" y="0" width="24" height="24"></rect>
                        <path d="M19,2.9999 C20.1,2.9999 21,3.8999 21,4.9999 L21,20.9999 C21,22.0999 20.1,22.9999 19,22.9999 L5,22.9999 C3.9,22.9999 3,22.0999 3,20.9999 L3,4.9999 C3,3.8999 3.9,2.9999 5,2.9999 L9.18,2.9999 C9.6,1.8399 10.7,0.9999 12,0.9999 C13.3,0.9999 14.4,1.8399 14.82,2.9999 L19,2.9999 Z M13.406,10.5339 L7.523,15.9639 L7.523,17.9999 L9.729,17.9999 L15.612,12.5699 L13.406,10.5339 Z M17.351,10.1969 L15.978,8.9289 C15.748,8.7169 15.374,8.7169 15.145,8.9289 L13.994,9.9909 L16.201,12.0269 L17.351,10.9649 C17.58,10.7529 17.58,10.4089 17.351,10.1969 L17.351,10.1969 Z M12,2.9999 C12.55,2.9999 13,3.4499 13,3.9999 C13,4.5499 12.55,4.9999 12,4.9999 C11.45,4.9999 11,4.5499 11,3.9999 C11,3.4499 11.45,2.9999 12,2.9999 L12,2.9999 Z" fill="#000000"></path>
                    </g>
                </g>
            </g>
        </g>
    </g>
</svg>
