<?xml version="1.0" encoding="UTF-8"?>
<svg width="24px" height="24px" viewBox="0 0 24 24" version="1.1" xmlns="http://www.w3.org/2000/svg" xmlns:xlink="http://www.w3.org/1999/xlink">
    <!-- Generator: Sketch 44.1 (41455) - http://www.bohemiancoding.com/sketch -->
    <title>Icons/Surveys/icon_survey_template</title>
    <desc>Created with Sketch.</desc>
    <defs></defs>
    <g id="Symbols" stroke="none" stroke-width="1" fill="none" fill-rule="evenodd">
        <g id="Icons/Surveys/icon_survey_template">
            <g id="icon_survey_template">
                <rect id="Rectangle-2" x="0" y="0" width="24" height="24"></rect>
                <path d="M14.556,13.556 L16.334,13.556 L16.334,11.778 L14.556,11.778 L14.556,13.556 Z M12,5 C11.45,5 11,4.55 11,4 C11,3.45 11.45,3 12,3 C12.55,3 13,3.45 13,4 C13,4.55 12.55,5 12,5 L12,5 Z M11,13.556 L12.777,13.556 L12.777,11.778 L11,11.778 L11,13.556 Z M7.445,13.556 L9.223,13.556 L9.223,11.778 L7.445,11.778 L7.445,13.556 Z M19,3 L14.82,3 C14.4,1.84 13.3,1 12,1 C10.7,1 9.6,1.84 9.18,3 L5,3 C3.9,3 3,3.9 3,5 L3,21 C3,22.1 3.9,23 5,23 L19,23 C20.1,23 21,22.1 21,21 L21,5 C21,3.9 20.1,3 19,3 L19,3 Z" fill="#3E4543"></path>
            </g>
        </g>
    </g>
</svg>