<?xml version="1.0" encoding="UTF-8"?>
<svg width="20px" height="16px" viewBox="0 0 20 16" version="1.1" xmlns="http://www.w3.org/2000/svg" xmlns:xlink="http://www.w3.org/1999/xlink">
    <!-- Generator: Sketch 44.1 (41455) - http://www.bohemiancoding.com/sketch -->
    <title>surveys-unattributed</title>
    <desc>Created with Sketch.</desc>
    <defs></defs>
    <g id="Style" stroke="none" stroke-width="1" fill="none" fill-rule="evenodd">
        <g id="Style/Icons" transform="translate(-598.000000, -1431.000000)">
            <g id="Surveys" transform="translate(61.000000, 1388.000000)">
                <g id="Icons/Surveys/icon_unattributed_survey" transform="translate(535.000000, 39.261719)">
                    <g id="icon_unattributed_survey">
                        <rect id="Rectangle-2" x="0" y="0" width="24" height="24"></rect>
                        <path d="M20.333,3.9999 L3.667,3.9999 C2.75,3.9999 2,4.7619 2,5.6929 L2,17.5449 C2,18.4769 2.75,19.2379 3.667,19.2379 L20.333,19.2379 C21.25,19.2379 21.991,18.4769 21.991,17.5449 L22,5.6929 C22,4.7619 21.25,3.9999 20.333,3.9999 L20.333,3.9999 Z M8.667,6.5399 C10.05,6.5399 11.167,7.6739 11.167,9.0799 C11.167,10.4849 10.05,11.6189 8.667,11.6189 C7.283,11.6189 6.167,10.4849 6.167,9.0799 C6.167,7.6739 7.283,6.5399 8.667,6.5399 L8.667,6.5399 Z M13.667,16.6989 L3.667,16.6989 L3.667,15.8519 C3.667,14.1589 7,13.2279 8.667,13.2279 C10.333,13.2279 13.667,14.1589 13.667,15.8519 L13.667,16.6989 Z M16.485,14.3569 L17.735,14.3569 L17.735,13.1659 L16.485,13.1659 L16.485,14.3569 Z M19.029,9.7429 L18.467,10.2909 C18.017,10.7249 17.735,11.0829 17.735,11.9759 L16.485,11.9759 L16.485,11.6779 C16.485,11.0229 16.767,10.4279 17.217,9.9929 L17.991,9.2429 C18.223,9.0279 18.36,8.7309 18.36,8.4029 C18.36,7.7489 17.798,7.2129 17.11,7.2129 C16.423,7.2129 15.86,7.7489 15.86,8.4029 L14.61,8.4029 C14.61,7.0879 15.729,6.0219 17.11,6.0219 C18.491,6.0219 19.61,7.0879 19.61,8.4029 C19.61,8.9269 19.385,9.4029 19.029,9.7429 L19.029,9.7429 Z" fill="#000000"></path>
                    </g>
                </g>
            </g>
        </g>
    </g>
</svg>
