<?xml version="1.0" encoding="UTF-8"?>
<svg width="18px" height="23px" viewBox="0 0 18 23" version="1.1" xmlns="http://www.w3.org/2000/svg" xmlns:xlink="http://www.w3.org/1999/xlink">
    <!-- Generator: Sketch 44.1 (41455) - http://www.bohemiancoding.com/sketch -->
    <title>Icons/Surveys/icon_survey_active</title>
    <desc>Created with Sketch.</desc>
    <defs></defs>
    <g id="Sub-Atomic" stroke="none" stroke-width="1" fill="none" fill-rule="evenodd">
        <g id="Atom---Icons" transform="translate(-279.000000, -1428.000000)">
            <g id="Surveys" transform="translate(61.000000, 1388.000000)">
                <g id="Icons/Surveys/icon_survey_active" transform="translate(215.000000, 39.261719)">
                    <g id="icon_survey_active">
                        <rect id="Rectangle-2" x="0" y="0" width="24" height="24"></rect>
                        <path d="M14.82,3 L19,3 C20.099,3 21,3.9 21,5 L21,21 C21,22.1 20.099,23 19,23 L5,23 C3.9,23 3,22.1 3,21 L3,5 C3,3.9 3.9,3 5,3 L9.179,3 C9.599,1.84 10.7,1 12,1 C13.299,1 14.4,1.84 14.82,3 L14.82,3 Z M7,18 L9,18 L9,11 L7,11 L7,18 Z M11,18 L13,18 L13,8 L11,8 L11,18 Z M15,18 L17,18 L17,14 L15,14 L15,18 Z M12,3 C12.549,3 13,3.45 13,4 C13,4.55 12.549,5 12,5 C11.45,5 11,4.55 11,4 C11,3.45 11.45,3 12,3 L12,3 Z" fill="#000000"></path>
                    </g>
                </g>
            </g>
        </g>
    </g>
</svg>
