<?xml version="1.0" encoding="UTF-8"?>
<svg width="16px" height="5px" viewBox="0 0 16 5" version="1.1" xmlns="http://www.w3.org/2000/svg" xmlns:xlink="http://www.w3.org/1999/xlink">
    <!-- Generator: Sketch 44.1 (41455) - http://www.bohemiancoding.com/sketch -->
    <title>views-ellipsis</title>
    <desc>Created with Sketch.</desc>
    <defs></defs>
    <g id="Style" stroke="none" stroke-width="1" fill="none" fill-rule="evenodd">
        <g id="Style/Icons" transform="translate(-473.000000, -1824.000000)">
            <g id="Views" transform="translate(62.000000, 1776.000000)">
                <g id="Icons/Views/icon_ellipses" transform="translate(407.000000, 38.738281)">
                    <g id="icon_ellipses">
                        <rect id="Rectangle-2" x="0" y="0" width="24" height="24"></rect>
                        <path d="M6,10 C4.9,10 4,10.9 4,12 C4,13.1 4.9,14 6,14 C7.1,14 8,13.1 8,12 C8,10.9 7.1,10 6,10 L6,10 Z M18,10 C16.9,10 16,10.9 16,12 C16,13.1 16.9,14 18,14 C19.1,14 20,13.1 20,12 C20,10.9 19.1,10 18,10 L18,10 Z M12,10 C10.9,10 10,10.9 10,12 C10,13.1 10.9,14 12,14 C13.1,14 14,13.1 14,12 C14,10.9 13.1,10 12,10 L12,10 Z" fill="#000000"></path>
                    </g>
                </g>
            </g>
        </g>
    </g>
</svg>
