<?xml version="1.0" encoding="UTF-8"?>
<svg width="66px" height="80px" viewBox="0 0 66 80" version="1.1" xmlns="http://www.w3.org/2000/svg" xmlns:xlink="http://www.w3.org/1999/xlink">
    <!-- Generator: Sketch 48.2 (47327) - http://www.bohemiancoding.com/sketch -->
    <title>spacing</title>
    <desc>Created with Sketch.</desc>
    <defs>
        <path d="M17.6727554,9.0413132 C17.5397375,9.08988985 17.4562915,9.40934307 17.4761203,9.66951631 C17.5397375,10.5249593 17.6116168,11.4940223 16.991142,12.9727285 C16.6961893,13.6766782 16.1632916,14.4110913 15.4527612,15.095281 C14.5579887,15.9564874 13.8069747,16.1499707 13.6144706,16.1499707 C13.5475485,16.1499707 13.5070648,16.128564 13.4938456,16.0857507 C13.4888885,16.071754 13.4789741,16.0240007 13.5351555,15.9836574 L13.6937856,15.8683908 C14.0730105,15.5958675 14.175459,15.5225909 14.5836009,15.1660877 C15.2329926,14.6004579 16.1599868,13.2378417 16.3087024,12.7981819 C16.4896398,12.264662 16.6466174,11.4594423 16.5887836,10.8633492 C16.5532571,10.4862627 16.473942,10.3677027 16.4574181,10.3578227 C16.3921484,10.3677027 16.2516948,10.5628327 16.1665964,10.8896959 C16.0914123,11.1778624 15.98979,11.520369 15.8906462,11.8472322 C15.6138699,12.7636019 15.3354411,13.1003451 15.0661005,13.4255616 C15.0107453,13.4930749 14.95539,13.5597649 14.9000347,13.6313949 C14.4208399,14.2530113 13.8053223,14.5881079 13.6590853,14.5881079 C13.595468,14.5881079 13.5748131,14.5452946 13.5698559,14.5321212 C13.5475485,14.4711946 13.595468,14.4143846 13.6731306,14.3476946 C13.8697658,14.180558 14.534029,13.5531783 14.8314603,12.4927253 C14.8818584,12.3124154 14.8322865,12.1255188 14.8000648,12.1098754 C14.8000648,12.1098754 14.7364475,12.1246954 14.63813,12.3675787 C14.429928,12.8813385 14.3960539,12.9315618 14.0672271,13.4132116 C13.66239,14.0068348 12.9262476,14.6053979 12.5767658,14.7733578 C12.0306489,15.0360011 11.4366125,15.1685577 10.8128329,15.1685577 C10.4410438,15.1685577 10.0502521,15.1208044 9.65202468,15.0277677 C8.76551416,14.8194645 7.71706883,13.9409681 7.65097298,13.8701615 C7.36262986,13.5581183 7.07015575,13.2230217 6.88343499,12.8903952 C6.39349954,12.0160155 6.18364523,11.1704524 6.26048165,10.3767594 C6.33897047,9.55671968 6.49925289,8.91863658 7.05445798,8.26820347 C7.60305349,7.62518037 8.09051035,7.19375386 8.95636591,6.88912063 C9.3876413,6.73680402 9.92880103,6.65282405 10.4790489,6.65282405 C11.2482393,6.65282405 11.9372885,6.81666733 12.3710425,7.10071722 C13.1253613,7.59636371 13.3947019,7.85324362 14.0639223,8.52343672 C14.367137,8.82806994 14.8355913,9.01002654 15.3156124,9.01002654 C15.6733561,9.01002654 16.0178807,8.91287324 16.3417503,8.72103665 C16.9878372,8.33818678 17.357974,7.84254029 17.4405938,7.24809384 C17.6198787,5.9661643 16.4433727,4.70564141 16.4318059,4.69329142 C16.1508986,4.39689152 15.8823842,4.14248161 15.6221318,3.91853503 C15.6196532,3.60319847 15.2652143,3.35784523 15.2652143,3.35784523 C13.3046463,1.9515924 11.468008,1.97546905 10.7186464,2.01004904 C9.82883106,2.05121569 8.99437102,2.14672233 8.16652057,2.37890224 C6.08615386,2.85643541 4.43788874,4.03050832 3.25229452,5.87642099 C2.41618209,6.86359731 2.10553162,8.37688344 2.01299744,9.61188299 C1.91137507,10.9473292 2.43022746,12.9480285 2.71443959,13.2156117 C2.98047536,13.4650816 3.21428941,13.5004849 3.24485874,13.5037783 C3.40679356,13.8487548 3.57946895,14.207728 3.65134818,14.3106447 C3.70505106,14.388038 3.75875393,14.4670779 3.813283,14.5461179 C4.14789322,15.0351777 4.4940702,15.5407042 4.95674112,15.9424907 C5.72014812,16.6052738 6.40506631,16.9708337 7.32958194,17.3767369 C8.24666178,17.7801701 8.95306112,17.9497767 9.84700742,17.98271 C10.1626151,17.99506 10.3807314,18 10.5765403,18 C11.2903754,18 11.8042706,17.9275467 12.5404131,17.7217134 C13.3071249,17.5092935 14.1548041,17.1330303 14.8083268,16.7164238 C15.0966699,16.5319972 15.985659,15.7292475 16.2946571,15.3727443 C16.6127433,15.0063611 17.1935605,14.1525647 17.4901656,13.300415 C18.1494717,11.4059257 18.0139752,10.3701727 17.9230934,9.6769263 C17.866912,9.23808979 17.7570276,9.0413132 17.6727554,9.0413132 Z" id="path-1"></path>
        <rect id="path-3" x="0" y="0" width="10" height="48"></rect>
    </defs>
    <g id="Page-1" stroke="none" stroke-width="1" fill="none" fill-rule="evenodd">
        <g id="spacing">
            <g id="Group-4">
                <g id="Group-3" transform="translate(0.000000, 12.000000)">
                    <g id="2.-Atoms/Icons/Navigational/Global/enso" transform="translate(0.000000, 2.000000)">
                        <mask id="mask-2" fill="white">
                            <use xlink:href="#path-1"></use>
                        </mask>
                        <use id="Icons/Navigational/Global/ca-monogram" fill="#000000" fill-rule="evenodd" xlink:href="#path-1"></use>
                        <g id="Color/Ink/100%" mask="url(#mask-2)" fill="#3E4543" fill-rule="evenodd">
                            <rect id="Rectangle-1-Copy-28" x="0" y="0" width="20" height="20"></rect>
                        </g>
                    </g>
                    <path d="M38.176,16.96 C38.112,17.296 38.096,17.664 38.08,18.048 C37.12,18 35.984,17.984 34.864,17.984 C33.776,17.984 32.608,18 31.68,18.048 C31.744,17.28 31.776,15.184 31.776,14.144 L31.776,10.608 C31.776,9.584 31.744,7.52 31.68,6.752 C32.128,6.752 32.592,6.736 32.976,6.688 C32.96,7.152 32.944,8.416 32.944,9.04 L32.944,15.68 C32.944,16.048 32.944,16.608 32.976,16.976 C33.424,16.976 34.32,16.992 34.8,16.992 C36.032,16.992 37.136,16.976 38.176,16.96 Z M41.376,18.192 C39.952,18.192 39.12,17.328 39.12,16.112 C39.12,14.752 40.272,13.712 42.864,13.712 C43.168,13.712 43.456,13.728 43.728,13.76 L43.744,13.456 C43.792,12.144 43.232,11.504 42.048,11.504 C41.296,11.504 40.512,11.824 39.968,12.208 L39.712,11.232 C40.48,10.784 41.296,10.528 42.208,10.528 C43.936,10.528 44.88,11.568 44.832,13.344 L44.736,16.512 C44.72,17.104 44.88,17.296 45.232,17.296 C45.44,17.296 45.648,17.232 45.872,17.136 L45.76,17.936 C45.536,18.048 45.248,18.16 44.912,18.16 C44.336,18.16 43.808,17.792 43.792,16.736 C43.392,17.584 42.464,18.192 41.376,18.192 Z M41.6,17.296 C42.752,17.296 43.648,16.416 43.696,15.216 L43.712,14.512 C43.424,14.48 43.12,14.464 42.832,14.464 C40.832,14.464 40.192,15.216 40.192,16.048 C40.192,16.736 40.608,17.296 41.6,17.296 Z M54.16,14.128 C54.16,16.416 52.48,18.256 50.24,18.256 C49.44,18.256 48.768,17.984 48.336,17.632 L47.584,18.224 L47.328,18.144 C47.392,17.264 47.424,16.368 47.424,15.488 L47.424,9.312 C47.424,8.24 47.408,7.36 47.344,6.624 C47.76,6.592 48.208,6.528 48.576,6.48 C48.544,6.752 48.528,7.648 48.528,8.32 L48.528,11.568 C49.104,11.056 49.952,10.528 51.024,10.528 C52.864,10.528 54.16,11.984 54.16,14.128 Z M53.056,14.272 C53.056,12.592 52.208,11.504 50.752,11.504 C49.872,11.504 49.072,12 48.528,12.592 L48.528,16.704 C48.992,17.072 49.584,17.28 50.336,17.28 C51.936,17.28 53.056,15.888 53.056,14.272 Z M62.224,14.048 L61.488,14.496 L56.688,14.624 C56.736,16.352 57.68,17.28 59.248,17.28 C60.368,17.28 61.2,16.8 61.904,16.208 L61.856,17.36 C61.104,17.888 60.256,18.256 59.12,18.256 C56.816,18.256 55.584,16.608 55.584,14.592 C55.584,12.32 57.024,10.528 59.216,10.528 C61.28,10.528 62.224,12.08 62.224,14.048 Z M56.72,13.776 L61.184,13.664 C61.04,12.256 60.4,11.472 59.136,11.472 C57.808,11.472 56.928,12.496 56.72,13.776 Z M65.28,18 L64.048,18 C64.112,17.312 64.128,16.288 64.128,15.344 L64.128,9.328 C64.128,8.24 64.112,7.376 64.048,6.64 C64.464,6.608 64.912,6.56 65.28,6.48 C65.248,6.768 65.232,7.68 65.232,8.32 L65.232,16.416 C65.232,16.976 65.248,17.584 65.28,18 Z" id="Label" fill="#3E4543"></path>
                </g>
                <g id="2.-Atoms/Colors/Primary/Coral/Tint-90%" transform="translate(20.000000, 0.000000)">
                    <g id="Rectangle-1-Copy-42">
                        <use fill="#F04C5D" xlink:href="#path-3"></use>
                        <use fill-opacity="0.9" fill="#FFFFFF" xlink:href="#path-3"></use>
                    </g>
                </g>
                <g id="HORIZONTAL#E464F84E-7269-4D8F-8300-EEBBD182B1F5#8EE9DB5F-999C-4ABC-B8A6-9CFABBFB0C84" transform="translate(7.000000, 49.000000)">
                    <rect id="ruler-start" fill="#F04C5D" x="13" y="0" width="1" height="5"></rect>
                    <rect id="ruler-end" fill="#F04C5D" x="22" y="0" width="1" height="5"></rect>
                    <rect id="ruler-line" fill="#F04C5D" x="13" y="2" width="10" height="1"></rect>
                    <polygon id="label-arrow" fill="#F04C5D" points="14 9 18 5 22 9 18 13"></polygon>
                    <rect id="label-box" fill="#F04C5D" x="0" y="9" width="35" height="22" rx="2"></rect>
                    <path d="M8.272,24 L7.252,24 L7.252,17.904 L5.044,17.904 L5.044,17.088 C5.33200144,17.088 5.61199864,17.0660002 5.884,17.022 C6.15600136,16.9779998 6.4019989,16.8960006 6.622,16.776 C6.8420011,16.6559994 7.02799924,16.492001 7.18,16.284 C7.33200076,16.075999 7.43599972,15.8120016 7.492,15.492 L8.272,15.492 L8.272,24 Z M12.256,19.812 C12.256,20.1320016 12.2659999,20.489998 12.286,20.886 C12.3060001,21.282002 12.3699995,21.6539983 12.478,22.002 C12.5860005,22.3500017 12.7599988,22.6439988 13,22.884 C13.2400012,23.1240012 13.5759978,23.244 14.008,23.244 C14.4400022,23.244 14.7759988,23.1240012 15.016,22.884 C15.2560012,22.6439988 15.4299995,22.3500017 15.538,22.002 C15.6460005,21.6539983 15.7099999,21.282002 15.73,20.886 C15.7500001,20.489998 15.76,20.1320016 15.76,19.812 C15.76,19.603999 15.758,19.3740013 15.754,19.122 C15.75,18.8699987 15.7300002,18.6180013 15.694,18.366 C15.6579998,18.1139987 15.6060003,17.8680012 15.538,17.628 C15.4699997,17.3879988 15.3700007,17.1780009 15.238,16.998 C15.1059993,16.8179991 14.940001,16.6720006 14.74,16.56 C14.539999,16.4479994 14.2960014,16.392 14.008,16.392 C13.7199986,16.392 13.476001,16.4479994 13.276,16.56 C13.075999,16.6720006 12.9100007,16.8179991 12.778,16.998 C12.6459993,17.1780009 12.5460003,17.3879988 12.478,17.628 C12.4099997,17.8680012 12.3580002,18.1139987 12.322,18.366 C12.2859998,18.6180013 12.266,18.8699987 12.262,19.122 C12.258,19.3740013 12.256,19.603999 12.256,19.812 Z M11.176,19.824 C11.176,19.5119984 11.1839999,19.1880017 11.2,18.852 C11.2160001,18.5159983 11.2559997,18.1880016 11.32,17.868 C11.3840003,17.5479984 11.4759994,17.2440014 11.596,16.956 C11.7160006,16.6679986 11.879999,16.4160011 12.088,16.2 C12.296001,15.9839989 12.5579984,15.8120006 12.874,15.684 C13.1900016,15.5559994 13.5679978,15.492 14.008,15.492 C14.4480022,15.492 14.8259984,15.5559994 15.142,15.684 C15.4580016,15.8120006 15.719999,15.9839989 15.928,16.2 C16.136001,16.4160011 16.2999994,16.6679986 16.42,16.956 C16.5400006,17.2440014 16.6319997,17.5479984 16.696,17.868 C16.7600003,18.1880016 16.7999999,18.5159983 16.816,18.852 C16.8320001,19.1880017 16.84,19.5119984 16.84,19.824 C16.84,20.1360016 16.8320001,20.4599983 16.816,20.796 C16.7999999,21.1320017 16.7600003,21.4599984 16.696,21.78 C16.6319997,22.1000016 16.5400006,22.4019986 16.42,22.686 C16.2999994,22.9700014 16.136001,23.2199989 15.928,23.436 C15.719999,23.6520011 15.4600016,23.8219994 15.148,23.946 C14.8359984,24.0700006 14.4560022,24.132 14.008,24.132 C13.5679978,24.132 13.1900016,24.0700006 12.874,23.946 C12.5579984,23.8219994 12.296001,23.6520011 12.088,23.436 C11.879999,23.2199989 11.7160006,22.9700014 11.596,22.686 C11.4759994,22.4019986 11.3840003,22.1000016 11.32,21.78 C11.2559997,21.4599984 11.2160001,21.1320017 11.2,20.796 C11.1839999,20.4599983 11.176,20.1360016 11.176,19.824 Z M18.148,17.796 L19.168,17.796 L19.168,18.636 L19.192,18.636 C19.3600008,18.2919983 19.6239982,18.0420008 19.984,17.886 C20.3440018,17.7299992 20.7399978,17.652 21.172,17.652 C21.6520024,17.652 22.0699982,17.7399991 22.426,17.916 C22.7820018,18.0920009 23.0779988,18.3299985 23.314,18.63 C23.5500012,18.9300015 23.7279994,19.275998 23.848,19.668 C23.9680006,20.060002 24.028,20.4759978 24.028,20.916 C24.028,21.3560022 23.9700006,21.771998 23.854,22.164 C23.7379994,22.556002 23.5620012,22.8979985 23.326,23.19 C23.0899988,23.4820015 22.7940018,23.7119992 22.438,23.88 C22.0819982,24.0480008 21.6680024,24.132 21.196,24.132 C21.0439992,24.132 20.8740009,24.1160002 20.686,24.084 C20.4979991,24.0519998 20.3120009,24.0000004 20.128,23.928 C19.9439991,23.8559996 19.7700008,23.7580006 19.606,23.634 C19.4419992,23.5099994 19.3040006,23.3560009 19.192,23.172 L19.168,23.172 L19.168,26.364 L18.148,26.364 L18.148,17.796 Z M22.948,20.844 C22.948,20.5559986 22.9100004,20.2740014 22.834,19.998 C22.7579996,19.7219986 22.6420008,19.4760011 22.486,19.26 C22.3299992,19.0439989 22.1300012,18.8720006 21.886,18.744 C21.6419988,18.6159994 21.3560016,18.552 21.028,18.552 C20.6839983,18.552 20.3920012,18.6199993 20.152,18.756 C19.9119988,18.8920007 19.7160008,19.0699989 19.564,19.29 C19.4119992,19.5100011 19.3020003,19.7599986 19.234,20.04 C19.1659997,20.3200014 19.132,20.6039986 19.132,20.892 C19.132,21.1960015 19.1679996,21.4899986 19.24,21.774 C19.3120004,22.0580014 19.4259992,22.3079989 19.582,22.524 C19.7380008,22.7400011 19.9399988,22.9139993 20.188,23.046 C20.4360012,23.1780007 20.7359982,23.244 21.088,23.244 C21.4400018,23.244 21.7339988,23.1760007 21.97,23.04 C22.2060012,22.9039993 22.3959993,22.7240011 22.54,22.5 C22.6840007,22.2759989 22.7879997,22.0200014 22.852,21.732 C22.9160003,21.4439986 22.948,21.1480015 22.948,20.844 Z M26.896,20.736 L24.736,17.796 L26.044,17.796 L27.532,19.968 L29.08,17.796 L30.304,17.796 L28.168,20.652 L30.568,24 L29.26,24 L27.532,21.432 L25.804,24 L24.568,24 L26.896,20.736 Z" id="label-text" fill="#FFFFFF"></path>
                </g>
            </g>
        </g>
    </g>
</svg>