<?xml version="1.0" encoding="UTF-8"?>
<svg width="20px" height="20px" viewBox="0 0 20 20" version="1.1" xmlns="http://www.w3.org/2000/svg" xmlns:xlink="http://www.w3.org/1999/xlink">
    <!-- Generator: Sketch 44.1 (41455) - http://www.bohemiancoding.com/sketch -->
    <title>Icons/Actions/ellipses</title>
    <desc>Created with Sketch.</desc>
    <defs>
        <path d="M5.5,8.5 C4.675,8.5 4,9.175 4,10 C4,10.825 4.675,11.5 5.5,11.5 C6.325,11.5 7,10.825 7,10 C7,9.175 6.325,8.5 5.5,8.5 L5.5,8.5 Z M14.5,8.5 C13.675,8.5 13,9.175 13,10 C13,10.825 13.675,11.5 14.5,11.5 C15.325,11.5 16,10.825 16,10 C16,9.175 15.325,8.5 14.5,8.5 L14.5,8.5 Z M10,8.5 C9.175,8.5 8.5,9.175 8.5,10 C8.5,10.825 9.175,11.5 10,11.5 C10.825,11.5 11.5,10.825 11.5,10 C11.5,9.175 10.825,8.5 10,8.5 L10,8.5 Z" id="path-1"></path>
    </defs>
    <g id="Symbols" stroke="none" stroke-width="1" fill="none" fill-rule="evenodd">
        <g id="Icons/Actions/ellipses">
            <mask id="mask-2" fill="white">
                <use xlink:href="#path-1"></use>
            </mask>
            <use fill="#000000" xlink:href="#path-1"></use>
        </g>
    </g>
</svg>