<?xml version="1.0" encoding="UTF-8"?>
<svg width="20px" height="20px" viewBox="0 0 20 20" version="1.1" xmlns="http://www.w3.org/2000/svg" xmlns:xlink="http://www.w3.org/1999/xlink">
    <!-- Generator: Sketch 44.1 (41455) - http://www.bohemiancoding.com/sketch -->
    <title>Icons/Navigational/Global/support</title>
    <desc>Created with Sketch.</desc>
    <defs>
        <path d="M10,13.5 C9.2846,13.5 8.6189,13.2851 8.0645,12.9169 L5.5655,15.4159 C6.773,16.4057 8.3172,17 10,17 C11.6772,17 13.2172,16.4099 14.4219,15.4264 L11.9215,12.926 C11.3699,13.2886 10.7098,13.5 10,13.5 M15.4159,5.5655 L12.9169,8.0645 C13.2851,8.6189 13.5,9.2846 13.5,10 C13.5,10.7098 13.2886,11.3706 12.926,11.9222 L15.4264,14.4226 C16.4099,13.2165 17,11.6772 17,10 C17,8.3172 16.4057,6.7723 15.4159,5.5655 M6.5,10 C6.5,9.2902 6.7114,8.6294 7.074,8.0778 L4.5736,5.5774 C3.5901,6.7828 3,8.3228 3,10 C3,11.6828 3.5943,13.2277 4.5841,14.4345 L7.0831,11.9355 C6.7149,11.3811 6.5,10.7154 6.5,10 M10,6.5 C10.7154,6.5 11.3811,6.7149 11.9355,7.0831 L14.4352,4.5841 C13.227,3.5943 11.6828,3 10,3 C8.3228,3 6.7828,3.5901 5.5781,4.5736 L8.0785,7.074 C8.6301,6.7114 9.2902,6.5 10,6.5" id="path-1"></path>
    </defs>
    <g id="Symbols" stroke="none" stroke-width="1" fill="none" fill-rule="evenodd">
        <g id="Icons/Navigational/Global/support">
            <mask id="mask-2" fill="white">
                <use xlink:href="#path-1"></use>
            </mask>
            <use fill="#000000" xlink:href="#path-1"></use>
        </g>
    </g>
</svg>